<svg xmlns="http://www.w3.org/2000/svg" xmlns:osb="http://www.openswatchbook.org/uri/2009/osb" xmlns:xlink="http://www.w3.org/1999/xlink" width="27.751" height="27.868" x="0" y="0" enable-background="new 0 0 100 100" version="1.1" viewBox="0 0 27.751 27.868" xml:space="preserve"><defs><filter id="d" color-interpolation-filters="sRGB"><feGaussianBlur result="blur" stdDeviation=".5"/><feComposite in="SourceGraphic" in2="blur" operator="atop" result="composite1"/><feComposite in2="composite1" operator="in" result="composite2"/><feComposite in2="composite2" operator="in" result="fbSourceGraphic"/><feColorMatrix in="fbSourceGraphic" result="fbSourceGraphicAlpha" values="0 0 0 -1 0 0 0 0 -1 0 0 0 0 -1 0 0 0 0 1 0"/><feGaussianBlur in="fbSourceGraphic" result="blur" stdDeviation="1.1"/><feComposite in="fbSourceGraphic" in2="blur" operator="atop" result="composite1"/><feComposite in2="composite1" operator="in" result="composite2"/><feComposite in2="composite2" operator="in" result="composite3"/></filter><filter id="c" color-interpolation-filters="sRGB"><feGaussianBlur result="blur" stdDeviation=".4"/><feComposite in="SourceGraphic" in2="blur" operator="atop" result="composite1"/><feComposite in2="composite1" operator="in" result="composite2"/><feComposite in2="composite2" operator="in" result="composite3"/></filter><linearGradient id="b" x1="-8.514" x2="11.393" y1="-14.176" y2="-14.176" gradientTransform="matrix(.92908 0 0 .92877 1.0321 -.65741)" gradientUnits="userSpaceOnUse"><stop offset="0"/><stop offset="1" stop-color="#fff"/></linearGradient><mask id="a" maskUnits="userSpaceOnUse"><rect width="18.495" height="18.549" x="-6.878" y="-23.098" fill="url(#b)" filter="url(#c)" transform="matrix(-.83626 .76803 -.73779 -.86549 -1.2799 -1.0136)"/></mask></defs><path d="m16.886 2.3823c-3.218-3.1936-8.4165-3.1736-11.61 0.0439-3.1934 3.2178-5.276 16.97-5.276 16.97s13.736-2.1864 16.929-5.4043c3.1933-3.2175 3.1734-8.4163-0.04385-11.609zm-9.0213 9.0897c-1.802-1.7889-1.813-4.6991-0.0241-6.5015 1.7885-1.802 4.6982-1.8126 6.5002-0.02415 1.8024 1.7889 1.8134 4.6982 0.02495 6.5002-1.7885 1.8029-4.6986 1.8139-6.5011 0.02501z" filter="url(#d)" mask="url(#a)" opacity=".752" transform="matrix(1.1975 0 0 1.1973 2.3126 2.3223)"/></svg>