<svg xmlns="http://www.w3.org/2000/svg" width="128" height="128" x="0" y="0" enable-background="new 0 0 595.275 311.111" version="1.1" viewBox="0 0 128 128" xml:space="preserve"><rect width="128" height="128" x="0" y="0" fill="#1d2d44" rx="20" ry="20"/><path fill="#fff" d="m65.096 4c-22.696 0-41.096 18.402-41.096 41.096 0 22.696 41.096 78.904 41.096 78.904s41.096-56.208 41.096-78.904c0-22.694-18.404-41.096-41.096-41.096zm0 64.108c-12.71 0-23.012-10.302-23.012-23.015 0-12.71 10.302-23.009 23.012-23.009 12.713 0 23.012 10.299 23.012 23.009 0.003 12.713-10.299 23.015-23.012 23.015z"/></svg>